# xmcd
#
# Track frame offsets:
#	150
#	13061
#	24369
#	36555
#	49209
#	61709
#	74138
#	87602
#	100856
#	114035
#	126162
#	138192
#	151257
#	164557
#	175332
#	187604
#	201888
#	214683
#	224528
#	236374
#	249881
#	262569
#	275724
#	285850
#	298775
#
# Disc length: 4154 seconds
#
# Revision: 1
# Processed by: cddbd v1.5.2PL0 Copyright (c) Steve Scherf et al.
# Submitted via: audiograbber 1.83.01
#
DISCID=66103819
DTITLE=Various Artist - Your Cheatin' Heart Clasic Country Disk 3
DYEAR=2007
DGENRE=
TTITLE0=Jimmy Wakely - My Heart Cries For You
TTITLE1=Jean Shepard and Ferlin Huskey - A Dear John Letter
TTITLE2=Lovesick Blues - Hank Williams
TTITLE3=Carl Smith - Let Old Mother Have Her Way
TTITLE4=Hank Snow - Rhumba Boogie
TTITLE5=Gene Autry - Have I Told You Lately That I Love You
TTITLE6=Pee Wee King - Slow Poke
TTITLE7=Stuart Hamblen - This Ole House
TTITLE8=Lefty Frizell - If You've Got The Money, I've Got The Time
TTITLE9=Al Dexter - Guitar Polka
TTITLE10=Ted Daffan - Born To Lose
TTITLE11=Little Jimmy Dickins - Hillbilly Fever
TTITLE12=Merle Travis - So Round, So Firm, So Fiully Packed
TTITLE13=Webb Pierce - There Stands The Glass
TTITLE14=Elton Britt - There's A Star Spangled Banner Waving Somewhere
TTITLE15=Red Foley - (There Will Be) Peace In The Valley (For Me)
TTITLE16=Roy Acuff - Wabash Cannonball
TTITLE17=Morgaret Whiting and Jimmy Wakley - Slipping Around
TTITLE18=Jim Reeves - Mexican Joe
TTITLE19=Tennessee Ernie Ford - Mule Train
TTITLE20=Tex Williams - Smoke Smoke Smoke That Cigarette
TTITLE21=Tex Ritter - Jealous Heart
TTITLE22=Hank Locklin - Let Me Be The One
TTITLE23=Hank Williams - Jambalaya (On The Bayou)
TTITLE24=Eddy Arnold - Anytime
EXTD=
EXTT0=
EXTT1=
EXTT2=
EXTT3=
EXTT4=
EXTT5=
EXTT6=
EXTT7=
EXTT8=
EXTT9=
EXTT10=
EXTT11=
EXTT12=
EXTT13=
EXTT14=
EXTT15=
EXTT16=
EXTT17=
EXTT18=
EXTT19=
EXTT20=
EXTT21=
EXTT22=
EXTT23=
EXTT24=
PLAYORDER=
